<mxfile host="app.diagrams.net" modified="2022-12-04T15:43:50.188Z" agent="5.0 (Windows NT 10.0; Win64; x64) AppleWebKit/537.36 (KHTML, like Gecko) Chrome/107.0.0.0 Safari/537.36" version="20.6.0" etag="OS7DZ8hrYmutTD3JiOb9" type="github">
  <diagram id="SQLnY2ol_2n8NCxBWwjK" name="Página-1">
    <mxGraphModel dx="832" dy="413" grid="1" gridSize="10" guides="1" tooltips="1" connect="1" arrows="1" fold="1" page="1" pageScale="1" pageWidth="827" pageHeight="1169" background="#ffffff" math="0" shadow="0">
      <root>
        <mxCell id="0" />
        <mxCell id="1" parent="0" />
        <mxCell id="upglPAF4bTscj1eCTX-f-11" style="edgeStyle=orthogonalEdgeStyle;rounded=0;orthogonalLoop=1;jettySize=auto;html=1;exitX=0.5;exitY=1;exitDx=0;exitDy=0;" edge="1" parent="1" source="upglPAF4bTscj1eCTX-f-1" target="upglPAF4bTscj1eCTX-f-10">
          <mxGeometry relative="1" as="geometry" />
        </mxCell>
        <mxCell id="upglPAF4bTscj1eCTX-f-13" style="edgeStyle=orthogonalEdgeStyle;rounded=0;orthogonalLoop=1;jettySize=auto;html=1;" edge="1" parent="1" source="upglPAF4bTscj1eCTX-f-1" target="upglPAF4bTscj1eCTX-f-12">
          <mxGeometry relative="1" as="geometry" />
        </mxCell>
        <mxCell id="upglPAF4bTscj1eCTX-f-1" value="Dev" style="rounded=0;whiteSpace=wrap;html=1;" vertex="1" parent="1">
          <mxGeometry x="140" y="200" width="110" height="60" as="geometry" />
        </mxCell>
        <mxCell id="upglPAF4bTscj1eCTX-f-4" style="edgeStyle=orthogonalEdgeStyle;rounded=0;orthogonalLoop=1;jettySize=auto;html=1;entryX=0.5;entryY=0;entryDx=0;entryDy=0;" edge="1" parent="1" source="upglPAF4bTscj1eCTX-f-2" target="upglPAF4bTscj1eCTX-f-1">
          <mxGeometry relative="1" as="geometry" />
        </mxCell>
        <mxCell id="upglPAF4bTscj1eCTX-f-5" style="edgeStyle=orthogonalEdgeStyle;rounded=0;orthogonalLoop=1;jettySize=auto;html=1;entryX=0.5;entryY=0;entryDx=0;entryDy=0;" edge="1" parent="1" source="upglPAF4bTscj1eCTX-f-2" target="upglPAF4bTscj1eCTX-f-3">
          <mxGeometry relative="1" as="geometry" />
        </mxCell>
        <mxCell id="upglPAF4bTscj1eCTX-f-2" value="Empresa_Zé" style="rounded=0;whiteSpace=wrap;html=1;" vertex="1" parent="1">
          <mxGeometry x="340" y="20" width="120" height="60" as="geometry" />
        </mxCell>
        <mxCell id="upglPAF4bTscj1eCTX-f-7" style="edgeStyle=orthogonalEdgeStyle;rounded=0;orthogonalLoop=1;jettySize=auto;html=1;exitX=0.25;exitY=1;exitDx=0;exitDy=0;" edge="1" parent="1" source="upglPAF4bTscj1eCTX-f-3" target="upglPAF4bTscj1eCTX-f-6">
          <mxGeometry relative="1" as="geometry" />
        </mxCell>
        <mxCell id="upglPAF4bTscj1eCTX-f-9" style="edgeStyle=orthogonalEdgeStyle;rounded=0;orthogonalLoop=1;jettySize=auto;html=1;exitX=0.75;exitY=1;exitDx=0;exitDy=0;" edge="1" parent="1" source="upglPAF4bTscj1eCTX-f-3" target="upglPAF4bTscj1eCTX-f-8">
          <mxGeometry relative="1" as="geometry" />
        </mxCell>
        <mxCell id="upglPAF4bTscj1eCTX-f-3" value="Comercial" style="whiteSpace=wrap;html=1;" vertex="1" parent="1">
          <mxGeometry x="510" y="110" width="120" height="60" as="geometry" />
        </mxCell>
        <mxCell id="upglPAF4bTscj1eCTX-f-15" style="edgeStyle=orthogonalEdgeStyle;rounded=0;orthogonalLoop=1;jettySize=auto;html=1;exitX=0.25;exitY=1;exitDx=0;exitDy=0;" edge="1" parent="1" source="upglPAF4bTscj1eCTX-f-6" target="upglPAF4bTscj1eCTX-f-14">
          <mxGeometry relative="1" as="geometry" />
        </mxCell>
        <mxCell id="upglPAF4bTscj1eCTX-f-6" value="Vendas" style="whiteSpace=wrap;html=1;" vertex="1" parent="1">
          <mxGeometry x="414" y="210" width="120" height="60" as="geometry" />
        </mxCell>
        <mxCell id="upglPAF4bTscj1eCTX-f-17" style="edgeStyle=orthogonalEdgeStyle;rounded=0;orthogonalLoop=1;jettySize=auto;html=1;" edge="1" parent="1" source="upglPAF4bTscj1eCTX-f-8" target="upglPAF4bTscj1eCTX-f-16">
          <mxGeometry relative="1" as="geometry" />
        </mxCell>
        <mxCell id="upglPAF4bTscj1eCTX-f-8" value="Atendimento ao cliente" style="whiteSpace=wrap;html=1;" vertex="1" parent="1">
          <mxGeometry x="660" y="210" width="120" height="60" as="geometry" />
        </mxCell>
        <mxCell id="upglPAF4bTscj1eCTX-f-10" value="&lt;span style=&quot;background-color: rgb(255, 179, 102);&quot;&gt;Dev_prod&lt;/span&gt;" style="rounded=0;whiteSpace=wrap;html=1;" vertex="1" parent="1">
          <mxGeometry x="50" y="320" width="120" height="60" as="geometry" />
        </mxCell>
        <mxCell id="upglPAF4bTscj1eCTX-f-12" value="&lt;span style=&quot;background-color: rgb(255, 153, 51);&quot;&gt;Dev_prod_terceiro&lt;/span&gt;" style="rounded=0;whiteSpace=wrap;html=1;" vertex="1" parent="1">
          <mxGeometry x="215" y="320" width="110" height="60" as="geometry" />
        </mxCell>
        <mxCell id="upglPAF4bTscj1eCTX-f-14" value="&lt;span style=&quot;background-color: rgb(255, 179, 102);&quot;&gt;captação_prospec&lt;br&gt;ativo&lt;/span&gt;" style="whiteSpace=wrap;html=1;" vertex="1" parent="1">
          <mxGeometry x="380" y="320" width="120" height="60" as="geometry" />
        </mxCell>
        <mxCell id="upglPAF4bTscj1eCTX-f-16" value="&lt;span style=&quot;background-color: rgb(255, 153, 51);&quot;&gt;Canal_cliente&lt;br&gt;receptivo&lt;/span&gt;" style="whiteSpace=wrap;html=1;" vertex="1" parent="1">
          <mxGeometry x="670" y="320" width="120" height="60" as="geometry" />
        </mxCell>
      </root>
    </mxGraphModel>
  </diagram>
</mxfile>
